# xmcd
#
# Track frame offsets:
#	150
#	15180
#	28698
#	41655
#	54915
#	73776
#	87172
#	99086
#	114305
#	126496
#	139530
#	153020
#	166232
#	184114
#
# Disc length: 2668 seconds
#
# Revision: 0
# Processed by: cddbd v1.5.2PL0 Copyright (c) Steve Scherf et al.
# Submitted via: dBpowerAMP V4.0
#
DISCID=a30a6a0e
DTITLE=High Ground - A Game That I Can't Win
DYEAR=2007
DGENRE=Bluegrass
TTITLE0=Leaving Roanoke In The Rain
TTITLE1=I'm So Blue
TTITLE2=Someone Else (With Donna Hughes)
TTITLE3=Summer Girl
TTITLE4=She Taught Us How To Sing (With Donna Hughes)
TTITLE5=What We Could See For Free
TTITLE6=Daddy's Shoes
TTITLE7=Tradewinds
TTITLE8=Franklin County Clay
TTITLE9=Don't Let It Rain (With Jimmy Fortune)
TTITLE10=Train Of Destruction
TTITLE11=Flood Of '69
TTITLE12=A Game That I can't Win
TTITLE13=Elizabeth (With Jimmy Fortune)
EXTD=
EXTT0=
EXTT1=
EXTT2=
EXTT3=
EXTT4=
EXTT5=
EXTT6=
EXTT7=
EXTT8=
EXTT9=
EXTT10=
EXTT11=
EXTT12=
EXTT13=
PLAYORDER=
